<svg xmlns="http://www.w3.org/2000/svg" version="1.0" width="1024.000000pt" height="1024.000000pt" viewBox="-3 -3 1030 1030" preserveAspectRatio="xMidYMid meet"><g id="deeditor_bgCarrier" stroke-width="0">
    <rect id="dee_c_e" x="-3" y="-3" width="1030" height="1030" rx="0" fill="#752929" stroke-width="0"/>
  </g>

<g transform="translate(0.000000,1024.000000) scale(0.100000,-0.100000)" fill="#000000" stroke="none">
<path d="M5315 9673 c-33 -5 -64 -37 -65 -68 0 -20 154 -186 165 -179 3 2 3 1 0 -2 -2 -4 11 -28 29 -53 18 -25 37 -57 41 -71 4 -14 23 -49 41 -77 19 -29 32 -53 29 -53 -4 0 14 -54 35 -105 5 -11 12 -31 16 -45 10 -32 11 -150 2 -150 -4 0 -6 -10 -5 -22 4 -45 -28 -175 -54 -218 -5 -8 -12 -22 -16 -30 -4 -8 -13 -21 -20 -28 -7 -7 -13 -19 -13 -27 0 -7 -17 -25 -37 -41 -21 -16 -52 -42 -68 -59 -17 -16 -48 -41 -68 -55 -20 -14 -37 -28 -37 -32 0 -5 -6 -8 -14 -8 -8 0 -16 -3 -18 -7 -1 -5 -25 -23 -51 -41 l-48 -32 -177 1 c-193 1 -302 -3 -302 -11 0 -3 -24 -6 -53 -7 -28 -1 -77 -7 -107 -12 -30 -5 -89 -15 -130 -21 -171 -27 -362 -91 -555 -186 -77 -38 -126 -68 -229 -136 -11 -7 -74 -56 -140 -109 -113 -89 -156 -131 -246 -236 -60 -70 -70 -83 -63 -83 3 0 -3 -10 -14 -22 -29 -31 -51 -71 -132 -233 -65 -131 -97 -221 -108 -305 -2 -19 -8 -50 -13 -69 -5 -19 -7 -39 -4 -45 3 -6 0 -4 -8 5 -19 23 -47 36 -98 44 -25 3 -72 16 -105 27 -33 12 -87 28 -120 35 -124 29 -295 78 -375 108 -25 9 -67 23 -95 32 -27 8 -54 19 -60 24 -5 5 -15 9 -22 9 -8 0 -42 13 -76 29 -78 37 -143 43 -163 16 -18 -24 -18 -78 0 -118 7 -18 21 -48 30 -69 9 -20 16 -39 16 -42 0 -3 23 -52 50 -109 27 -57 50 -109 50 -116 0 -6 9 -21 20 -33 11 -12 20 -27 20 -34 0 -12 28 -68 97 -194 17 -30 45 -82 63 -114 18 -33 47 -82 66 -109 19 -27 34 -55 34 -62 0 -7 3 -15 8 -17 4 -1 25 -27 47 -57 22 -30 50 -66 62 -79 12 -13 41 -49 65 -80 109 -142 378 -401 511 -492 86 -58 141 -107 154 -137 35 -85 -45 -214 -190 -306 -85 -54 -167 -78 -342 -101 -108 -13 -116 -27 -47 -72 115 -76 191 -94 393 -96 110 -1 176 10 207 35 27 21 9 -8 -47 -77 -79 -97 -134 -140 -265 -207 -61 -32 -112 -64 -114 -73 -6 -27 131 -59 253 -58 85 1 120 7 253 50 l63 20 -27 -36 c-15 -21 -51 -62 -80 -92 -154 -162 -201 -210 -208 -210 -4 0 -17 -9 -29 -21 -12 -11 -44 -40 -71 -62 -27 -23 -66 -58 -87 -77 -21 -19 -57 -51 -80 -70 -66 -54 -219 -203 -219 -212 0 -5 10 -3 23 3 12 7 23 11 25 10 1 -2 21 1 45 5 23 4 49 8 57 9 29 3 60 16 60 25 0 5 6 7 14 4 22 -8 151 66 295 171 40 28 431 429 431 441 0 8 4 14 9 14 20 0 141 175 185 267 6 13 14 23 19 23 4 0 7 7 7 17 0 9 11 35 25 58 13 23 33 64 44 91 10 27 36 85 57 129 40 83 40 84 43 113 3 24 40 -67 40 -99 1 -15 8 -29 16 -33 8 -3 21 -18 27 -33 43 -97 206 -281 303 -342 56 -35 105 -93 169 -201 25 -42 53 -83 61 -90 8 -7 15 -16 15 -21 0 -12 89 -157 128 -209 72 -95 96 -85 37 14 -47 77 -40 94 10 25 22 -30 49 -61 60 -70 19 -17 19 -17 -9 -75 -15 -33 -32 -67 -37 -76 -5 -10 -9 -22 -9 -27 0 -4 -10 -30 -22 -57 -12 -27 -23 -58 -25 -69 -2 -11 -10 -47 -18 -80 -29 -121 -28 -222 3 -233 7 -2 16 8 22 22 5 14 14 26 20 26 5 0 10 7 10 15 0 8 4 15 10 15 5 0 16 16 25 36 8 19 24 47 35 61 11 14 25 44 31 67 12 45 102 231 123 256 8 8 17 26 21 39 13 44 108 161 130 161 25 0 168 -41 175 -51 3 -3 16 -9 30 -13 30 -9 64 -23 103 -42 16 -8 34 -14 40 -14 7 0 24 -6 39 -14 14 -8 43 -19 63 -26 20 -7 64 -27 97 -46 33 -19 62 -34 65 -34 8 0 158 -74 163 -80 4 -6 66 -36 165 -82 11 -5 61 -30 110 -57 267 -142 379 -193 475 -216 41 -10 91 -24 110 -31 86 -34 273 -57 327 -41 40 13 41 18 5 40 -16 9 -43 30 -60 48 -17 17 -35 28 -41 25 -7 -5 -8 -1 -4 9 3 10 0 21 -8 25 -23 15 -5 19 36 10 109 -23 144 -28 195 -24 32 3 62 12 73 22 21 18 21 17 -61 80 -38 29 -136 127 -182 182 -101 120 -140 252 -102 340 52 121 32 193 -66 242 -25 13 -44 30 -47 42 -2 12 -9 48 -16 81 -6 33 -19 71 -29 85 -22 33 -33 77 -20 85 12 7 78 111 114 177 13 24 28 42 33 41 6 -1 41 -5 79 -8 38 -3 83 -8 100 -10 19 -3 54 3 87 15 44 17 56 26 60 47 7 40 -22 201 -48 266 -9 21 2 22 51 0 22 -9 43 -16 48 -15 4 2 13 -2 20 -7 6 -5 28 -12 49 -16 20 -4 40 -11 43 -16 3 -5 12 -9 20 -9 8 0 72 -27 141 -61 70 -33 134 -61 142 -62 78 -5 101 45 82 178 -20 144 -107 377 -190 510 -14 22 -34 56 -44 75 -10 19 -24 40 -30 45 -7 6 -33 36 -60 67 -60 71 -260 273 -310 313 l-38 30 35 73 c20 40 36 81 36 92 0 10 4 21 9 24 13 8 25 110 23 192 -1 66 -4 75 -47 139 -25 38 -52 93 -61 124 -28 99 -86 276 -94 286 -4 6 -11 27 -14 48 -3 21 -15 57 -26 79 -11 23 -20 47 -20 54 0 7 -25 61 -56 120 -48 92 -55 110 -45 130 6 13 17 24 24 24 46 0 317 254 317 298 0 5 10 17 21 28 12 10 30 37 40 59 10 22 25 51 33 65 48 79 102 246 112 347 13 122 5 335 -14 413 -22 84 -52 160 -65 160 -4 0 -5 4 -2 10 7 11 -81 186 -107 212 -10 10 -18 22 -18 27 0 5 -6 16 -12 23 -7 7 -33 40 -57 73 -72 98 -251 266 -316 296 -22 10 -36 19 -30 19 14 0 -54 44 -92 59 -18 8 -33 18 -33 23 0 5 -4 6 -10 3 -5 -3 -10 -2 -10 4 0 5 -17 15 -37 22 -21 6 -42 15 -48 19 -5 4 -29 10 -51 13 -51 7 -81 -17 -68 -55 8 -26 55 -101 67 -106 4 -2 7 -10 7 -17 0 -7 3 -15 8 -17 4 -1 24 -31 45 -65 21 -35 54 -79 73 -99 34 -37 104 -167 104 -195 0 -8 4 -19 9 -25 5 -5 21 -47 37 -94 34 -104 42 -245 18 -349 -8 -36 -17 -76 -19 -89 -11 -71 -83 -178 -198 -295 -47 -47 -91 -95 -97 -104 -10 -16 -11 -16 -5 2 4 11 8 29 10 40 3 27 24 168 34 235 9 54 8 130 -2 160 -3 8 -10 49 -17 90 -6 41 -19 95 -28 120 -9 25 -17 50 -18 55 -14 58 -46 151 -54 153 -6 2 -10 11 -10 19 0 18 -42 99 -84 163 -61 92 -294 300 -337 300 -5 0 -9 4 -9 9 0 10 -16 20 -107 65 -113 56 -160 74 -203 81 -25 4 -54 14 -65 21 -20 14 -25 15 -80 7z m368 -295 c22 -13 153 -113 172 -133 10 -10 114 -159 147 -213 30 -47 69 -135 80 -182 6 -25 15 -53 20 -64 28 -54 35 -110 32 -243 -1 -76 -5 -149 -8 -163 -4 -14 -9 -38 -11 -55 -3 -16 -10 -44 -16 -61 -9 -30 -10 -30 -62 -23 -75 11 -117 10 -117 -1 0 -5 8 -10 18 -10 9 0 31 -8 47 -18 17 -10 42 -22 57 -25 22 -6 26 -12 23 -35 -2 -15 -4 -27 -5 -27 -1 0 -4 -11 -6 -25 -3 -14 -23 -55 -45 -92 -38 -65 -42 -68 -77 -68 -20 0 -53 4 -72 9 -19 5 -51 12 -70 15 -19 3 -45 8 -57 12 -14 4 -23 2 -23 -4 0 -16 62 -61 91 -66 13 -2 25 -5 27 -7 4 -3 15 -6 60 -14 23 -4 42 -11 42 -15 0 -14 -89 -124 -151 -188 -56 -58 -64 -63 -93 -56 -40 8 -113 32 -151 49 -16 7 -46 16 -65 20 -30 7 -33 6 -22 -7 6 -8 30 -23 52 -34 22 -10 40 -22 40 -26 0 -5 8 -8 19 -8 10 0 24 -6 30 -14 7 -8 26 -18 42 -21 41 -9 36 -30 -18 -70 -64 -47 -78 -44 -262 42 -40 18 -76 31 -79 28 -16 -15 82 -86 188 -135 l45 -21 -25 -20 c-62 -49 -71 -50 -151 -24 -41 13 -94 31 -118 40 -24 9 -46 13 -49 11 -7 -8 99 -107 108 -101 4 3 13 -2 20 -10 7 -8 21 -15 31 -15 11 0 19 -4 19 -9 0 -18 68 -36 135 -35 50 1 82 7 111 22 23 12 44 18 48 15 3 -3 14 1 23 9 10 9 32 23 48 31 17 9 48 34 70 56 22 22 44 40 48 41 9 0 90 86 121 129 12 15 49 65 83 109 34 45 64 91 68 102 3 11 11 20 16 20 5 0 57 -49 116 -109 110 -110 133 -136 133 -146 0 -10 72 -120 81 -123 5 -2 9 -8 9 -14 0 -6 20 -44 44 -85 25 -40 48 -84 52 -96 6 -19 50 -114 74 -158 4 -9 22 -60 39 -115 38 -126 59 -184 71 -206 6 -10 10 -24 10 -31 0 -8 11 -34 24 -59 13 -24 27 -55 31 -69 4 -13 18 -38 31 -55 19 -25 24 -43 24 -92 0 -33 -4 -63 -9 -66 -4 -3 -11 -21 -14 -39 -3 -18 -24 -71 -46 -117 -67 -135 -61 -149 150 -347 24 -22 73 -74 109 -114 36 -40 73 -81 83 -91 9 -10 17 -20 17 -23 0 -3 24 -38 53 -78 29 -39 65 -97 81 -127 16 -30 37 -64 47 -76 11 -11 19 -23 19 -27 0 -4 14 -36 30 -72 17 -36 30 -67 30 -70 0 -2 5 -16 12 -32 27 -67 16 -78 -45 -44 -19 11 -81 34 -138 51 -57 18 -108 36 -114 40 -5 5 -39 13 -75 20 -36 6 -74 15 -85 20 -11 4 -49 14 -84 21 -57 11 -67 10 -97 -6 -20 -11 -34 -26 -34 -37 0 -10 25 -64 55 -119 43 -81 85 -191 85 -226 0 -3 -26 -3 -57 1 -32 4 -80 9 -108 11 -46 4 -80 9 -225 36 -66 12 -199 54 -257 80 -24 10 -50 19 -58 19 -8 0 -15 3 -15 8 0 4 -19 16 -42 26 -24 10 -50 24 -58 31 -8 7 -44 25 -80 41 -36 15 -96 49 -134 74 -37 25 -81 52 -97 61 -16 9 -46 32 -68 52 -21 19 -55 43 -74 52 -19 9 -55 34 -79 56 -23 21 -46 39 -50 39 -4 0 -35 19 -70 43 -105 72 -284 154 -363 167 -84 13 -203 16 -266 7 -85 -13 -185 -79 -228 -152 -22 -38 -21 -40 9 -25 11 6 29 15 40 20 35 18 103 38 151 44 36 5 48 3 61 -11 19 -22 104 -199 114 -237 3 -14 10 -29 15 -32 5 -3 9 -11 9 -19 0 -12 95 -214 123 -260 43 -72 121 -186 144 -211 16 -16 62 -67 103 -114 170 -189 311 -300 515 -400 61 -30 112 -58 115 -61 9 -11 152 -60 215 -74 123 -27 241 -45 285 -43 87 3 150 -5 150 -19 0 -7 -4 -13 -8 -13 -14 0 -31 -101 -28 -165 3 -69 16 -111 68 -214 21 -41 36 -76 34 -79 -6 -6 -123 87 -166 132 -62 65 -75 27 -29 -82 11 -24 21 -57 24 -74 l6 -29 -46 31 c-26 18 -65 52 -88 77 -40 44 -42 44 -47 22 -5 -22 24 -92 52 -126 15 -19 -2 -16 -59 8 -89 38 -496 245 -578 294 -22 13 -50 24 -61 25 -12 0 -32 8 -45 19 -13 10 -49 29 -79 42 -30 12 -66 31 -79 41 -13 10 -30 18 -37 18 -8 0 -22 4 -32 9 -26 14 -135 62 -157 71 -11 4 -55 24 -97 44 -42 20 -80 36 -83 36 -3 0 -34 18 -70 39 -36 22 -75 43 -87 47 -39 12 -242 107 -272 128 -16 10 -74 43 -130 71 -242 124 -447 284 -504 393 -11 22 -25 49 -31 59 -19 36 -50 109 -68 163 -10 30 -21 57 -24 60 -13 9 -13 55 -1 77 15 28 4 35 -45 28 -68 -10 -237 -4 -249 8 -4 4 -17 7 -29 7 -38 0 -196 59 -280 104 -92 50 -214 131 -263 177 -68 62 -130 108 -138 101 -5 -4 -6 -3 -3 1 4 5 -23 36 -60 71 -131 123 -292 294 -300 319 -2 7 -27 40 -56 75 -29 34 -58 75 -66 90 -8 15 -20 33 -27 41 -21 22 -122 178 -122 189 0 5 -9 19 -20 32 -11 13 -20 29 -20 37 0 7 -4 13 -8 13 -8 0 -25 29 -73 123 -10 20 -28 55 -40 77 -24 46 -71 191 -65 197 2 3 44 -12 93 -32 48 -20 108 -42 133 -50 25 -7 104 -33 175 -58 72 -24 177 -59 235 -76 58 -18 118 -39 133 -47 16 -7 40 -14 53 -14 14 0 36 -7 49 -16 14 -9 42 -17 62 -19 41 -3 136 -34 218 -70 28 -13 61 -26 73 -30 13 -4 50 -20 83 -36 32 -16 72 -32 89 -35 16 -4 30 -10 30 -15 0 -5 15 -15 33 -23 18 -7 53 -26 78 -42 61 -39 82 -52 99 -60 8 -4 21 -16 28 -26 7 -10 18 -18 24 -18 6 0 36 -21 67 -47 125 -106 166 -146 198 -195 45 -68 51 -48 21 72 -6 25 -17 52 -25 61 -7 8 -13 19 -13 23 0 8 -39 63 -80 111 -14 17 -34 43 -45 58 -11 15 -47 49 -80 75 -33 26 -68 55 -77 64 -10 10 -44 32 -75 50 -32 17 -69 39 -83 48 -54 36 -140 80 -157 80 -11 0 -24 5 -30 11 -6 6 -17 12 -24 13 -21 4 -51 16 -80 31 -14 8 -51 24 -83 35 -56 21 -57 23 -51 53 9 45 35 138 46 162 5 11 20 49 33 86 70 188 151 328 267 459 101 114 165 171 274 244 39 25 75 50 81 55 15 12 149 85 206 113 10 4 24 8 31 8 8 0 41 14 73 30 32 17 73 32 89 34 17 2 57 12 90 23 80 27 209 52 309 59 44 4 90 10 101 14 27 10 235 10 235 0 0 -4 -17 -23 -37 -42 -51 -47 -97 -110 -135 -188 -25 -52 -32 -78 -32 -131 -1 -36 4 -77 10 -90 6 -13 21 -45 33 -70 21 -46 102 -139 121 -139 6 0 10 -6 10 -13 0 -15 101 -67 131 -67 17 0 7 14 -47 68 -64 64 -88 90 -92 102 0 3 -8 22 -17 43 -8 21 -16 61 -17 90 -2 48 2 58 43 112 24 33 50 66 57 73 6 7 12 18 12 23 0 5 5 9 10 9 6 0 10 -12 10 -28 0 -52 92 -212 121 -212 9 0 -14 76 -42 137 -29 66 -35 144 -13 182 19 32 109 79 102 54 -3 -12 52 -124 79 -160 50 -68 49 -32 -2 69 -13 27 -22 48 -20 48 2 0 -3 16 -10 35 -20 47 -9 69 66 136 102 89 102 89 135 21 16 -31 34 -64 41 -72 7 -8 26 -33 43 -55 28 -36 117 -102 125 -93 2 2 -14 24 -37 48 -56 62 -107 141 -133 205 l-22 54 41 30 c23 16 53 40 67 53 52 45 83 68 94 68 6 0 41 -30 79 -66 58 -55 116 -94 141 -94 3 0 -19 25 -49 55 -52 52 -136 155 -136 168 0 3 6 12 13 19 7 7 25 33 40 58 52 86 47 84 108 54 77 -39 183 -45 233 -14 20 12 36 23 36 25 0 2 -33 3 -74 3 -85 0 -171 22 -204 52 -22 20 -23 37 -5 90 2 8 7 44 10 80 3 36 7 67 10 69 2 3 27 -2 56 -12 48 -15 107 -27 107 -22 0 7 -39 45 -47 45 -5 0 -28 9 -51 20 -22 11 -46 20 -51 20 -6 0 -13 17 -16 38 -13 90 -29 168 -36 182 -4 8 -22 45 -39 81 -17 36 -49 87 -71 113 -21 27 -39 50 -39 52 0 8 31 3 53 -8z m-143 -4106 c0 -9 125 -102 138 -102 4 0 19 -10 35 -23 l27 -22 -46 -95 c-25 -52 -50 -102 -55 -110 -5 -8 -12 -23 -15 -32 -8 -23 -24 -23 -24 0 0 10 -4 22 -10 28 -5 5 -16 38 -25 74 -9 36 -20 81 -25 100 -16 58 -23 190 -11 190 6 0 11 -4 11 -8z m492 -294 c26 -16 51 -28 57 -28 20 0 11 -26 -34 -94 -25 -38 -45 -71 -45 -74 0 -6 -33 -31 -41 -32 -4 0 -10 12 -14 28 -5 15 -9 32 -11 37 -8 28 -34 183 -34 202 0 22 0 22 38 5 20 -9 58 -29 84 -44z m352 -129 l95 -30 -20 -38 c-11 -21 -43 -64 -71 -96 l-52 -57 -23 68 c-23 67 -42 184 -30 184 3 0 48 -14 101 -31z m-610 -183 c7 -18 17 -53 21 -77 4 -24 16 -70 27 -102 10 -32 18 -65 16 -73 -2 -10 -33 6 -103 52 -55 36 -107 70 -115 74 -12 7 0 25 60 84 41 41 76 75 77 75 2 1 9 -14 17 -33z m400 -230 c10 -30 19 -68 21 -86 2 -18 7 -40 10 -50 6 -18 3 -18 -57 -4 -74 17 -111 31 -106 42 7 18 104 151 109 152 4 0 14 -24 23 -54z m316 -19 c6 -24 13 -57 15 -73 1 -16 6 -46 10 -68 3 -21 3 -36 -2 -33 -5 3 -46 7 -92 8 -45 2 -84 6 -86 9 -12 19 118 216 135 205 4 -3 13 -24 20 -48z m-1994 -319 c10 -32 -3 -32 -19 1 -12 23 -12 28 -1 24 7 -3 16 -14 20 -25z" fill="#000000"/>
<path d="M4598 7513 c5 -10 18 -36 28 -58 28 -62 72 -128 101 -152 31 -28 34 -28 26 -5 -19 49 -140 232 -154 232 -6 0 -6 -7 -1 -17z" fill="#000000"/>
<path d="M3820 7395 c-19 -14 -43 -30 -52 -37 -21 -15 -65 -76 -102 -143 -26 -48 -23 -45 71 51 138 141 149 154 132 154 -8 -1 -30 -12 -49 -25z" fill="#000000"/>
<path d="M3478 7272 c-70 -72 -160 -238 -138 -252 10 -6 11 -10 3 -10 -12 0 -37 -73 -31 -92 2 -5 30 41 62 104 32 62 64 120 71 128 7 8 21 31 30 50 10 19 22 38 27 41 14 9 46 79 38 84 -4 2 -32 -21 -62 -53z" fill="#000000"/>
<path d="M5535 7140 c-11 -5 -41 -9 -67 -9 -48 -1 -105 -17 -95 -27 17 -18 91 -12 142 11 30 13 55 26 55 29 0 8 -11 6 -35 -4z" fill="#000000"/>
<path d="M3824 6981 c-45 -37 -135 -238 -101 -225 15 5 142 244 130 244 -4 -1 -18 -9 -29 -19z" fill="#000000"/>
<path d="M3471 6866 c-23 -50 -38 -126 -25 -126 8 0 39 79 59 148 11 39 -12 24 -34 -22z" fill="#000000"/>
<path d="M5237 6856 c-62 -23 -63 -31 -7 -40 55 -8 148 -43 177 -65 14 -12 30 -18 35 -15 5 3 1 -11 -10 -32 -76 -151 -85 -193 -80 -337 5 -102 11 -137 37 -215 17 -51 42 -109 55 -130 29 -45 120 -139 160 -167 16 -11 34 -25 40 -31 12 -12 51 -33 106 -59 39 -18 117 -35 188 -40 43 -2 166 25 202 46 8 5 29 16 47 24 17 9 68 50 112 92 62 57 89 91 111 139 17 35 30 68 30 73 0 21 24 61 36 61 22 0 103 47 139 81 49 47 69 104 63 182 -3 34 -13 80 -23 102 -10 22 -17 43 -17 48 1 4 -3 7 -8 7 -6 0 -10 6 -10 13 0 33 -151 229 -165 215 -3 -3 13 -38 36 -79 61 -109 99 -251 89 -332 -15 -118 -106 -120 -235 -4 -33 30 -140 100 -202 133 -18 10 -33 21 -33 25 0 4 -10 10 -22 14 -13 4 -25 8 -28 9 -3 2 -18 8 -33 14 -16 7 -47 24 -70 40 -23 15 -73 43 -112 62 -38 19 -71 38 -73 42 -2 4 -27 14 -55 24 -29 9 -59 22 -67 29 -19 16 -128 51 -205 66 -97 18 -167 20 -208 5z" fill="#000000"/>
<path d="M2400 6602 c0 -24 106 -108 265 -210 122 -78 123 -79 128 -142 5 -58 25 -148 37 -165 4 -5 17 -36 29 -67 23 -58 51 -95 51 -67 0 8 -12 55 -25 104 -14 50 -32 120 -39 158 -16 85 -28 86 175 -25 36 -20 36 -21 43 -103 13 -169 91 -334 214 -450 27 -25 169 -112 192 -117 8 -2 17 -6 20 -9 6 -7 123 -38 128 -34 2 2 -5 12 -15 22 -61 64 -88 101 -104 144 -22 56 -24 121 -6 162 l12 27 78 -40 c43 -22 96 -52 117 -65 22 -14 41 -25 44 -25 13 0 -21 93 -56 153 -52 90 -151 191 -256 261 -45 31 -85 56 -88 56 -3 0 -10 5 -17 10 -25 21 -89 61 -120 74 -18 8 -102 47 -187 89 -253 122 -309 147 -324 147 -8 0 -17 4 -21 9 -3 5 -49 26 -103 46 -53 20 -106 40 -117 45 -38 16 -55 19 -55 12z" fill="#000000"/>
<path d="M5306 5948 c19 -38 113 -130 125 -122 5 3 7 -1 4 -8 -2 -8 18 -26 52 -45 73 -43 100 -43 48 -1 -21 18 -62 55 -90 81 -27 27 -66 61 -85 75 -19 15 -39 33 -43 39 -17 28 -27 11 -11 -19z" fill="#000000"/>
<path d="M6284 5715 c-15 -13 -41 -27 -57 -31 -16 -3 -40 -12 -55 -20 -15 -8 -34 -14 -42 -14 -9 0 -20 -4 -25 -8 -9 -8 -74 -21 -190 -38 -22 -3 -42 -8 -44 -10 -14 -13 24 -19 122 -19 109 0 114 1 189 38 42 20 86 49 97 65 12 15 26 33 32 40 20 24 3 22 -27 -3z" fill="#000000"/>
<path d="M6621 5572 c-64 -21 -127 -88 -136 -143 -12 -67 -8 -96 17 -141 26 -47 79 -88 114 -88 31 0 30 6 -9 64 -46 67 -48 118 -8 173 17 23 40 47 52 54 21 11 100 8 164 -7 l30 -7 -35 38 c-62 65 -116 82 -189 57z" fill="#000000"/>
<path d="M4163 5143 c9 -82 81 -245 114 -257 9 -4 10 -1 4 12 -13 25 -71 183 -77 208 -6 32 -33 94 -41 94 -3 0 -3 -26 0 -57z" fill="#000000"/>
<path d="M3565 9530 c-367 -14 -608 -21 -685 -21 -502 6 -652 6 -695 -1 -27 -4 -90 -9 -140 -12 -49 -2 -121 -9 -160 -14 -38 -6 -101 -13 -140 -16 -38 -3 -85 -10 -104 -15 -18 -6 -36 -10 -40 -9 -7 2 -47 -10 -76 -22 -11 -5 -47 -18 -79 -30 -33 -12 -71 -27 -85 -34 -31 -15 -104 -52 -145 -74 -41 -21 -246 -225 -246 -244 0 -9 -3 -18 -7 -20 -5 -1 -22 -24 -40 -50 -40 -58 -108 -267 -119 -363 -2 -22 -7 -53 -9 -70 -11 -60 -16 -229 -21 -640 -2 -231 -4 -424 -4 -430 1 -5 2 -1309 4 -2896 2 -1587 6 -2890 9 -2896 4 -6 9 -44 13 -84 5 -74 34 -208 57 -264 6 -16 12 -35 13 -41 7 -46 137 -220 220 -294 68 -61 285 -188 324 -190 8 0 27 -6 41 -14 34 -18 162 -56 187 -56 12 0 24 -5 27 -10 4 -6 10 -8 14 -6 4 3 50 -2 102 -11 87 -16 239 -22 499 -21 124 0 579 0 1125 -2 215 0 442 0 505 0 63 0 409 -1 768 -2 358 -2 652 1 652 5 0 5 5 5 12 1 6 -4 214 -7 462 -6 248 1 485 1 526 1 61 0 551 2 625 3 16 0 199 0 390 0 17 0 93 -1 170 -1 287 -3 742 8 805 18 36 5 92 13 125 16 33 4 80 11 105 16 25 6 65 14 90 18 57 9 230 72 296 107 167 88 253 176 348 354 65 124 123 351 132 515 2 50 6 113 9 140 5 46 18 880 15 915 -2 21 -8 4136 -6 4355 2 360 -3 1211 -9 1265 -3 30 -8 91 -11 135 -3 44 -10 97 -15 118 -6 21 -12 51 -14 66 -10 81 -120 333 -151 345 -8 3 -14 9 -14 15 0 13 -126 141 -139 141 -6 0 -11 4 -11 9 0 5 -10 13 -22 17 -12 3 -31 15 -42 26 -26 24 -164 99 -193 104 -12 2 -41 13 -65 23 -42 18 -69 25 -132 37 -16 3 -45 12 -65 20 -20 9 -65 18 -101 20 -36 3 -72 8 -80 11 -8 3 -51 7 -95 9 -44 2 -129 8 -190 13 -60 4 -127 7 -150 5 -22 -3 -147 -4 -278 -4 -130 -1 -248 -5 -262 -10 -15 -6 -27 -6 -30 0 -4 6 -67 8 -158 5 -84 -2 -204 -6 -267 -7 l-115 -3 2 -29 c3 -34 35 -64 103 -98 43 -22 56 -23 335 -24 160 -1 315 -4 345 -8 30 -3 78 -9 105 -12 28 -3 151 -10 275 -14 124 -5 239 -11 255 -15 17 -3 62 -8 100 -11 39 -3 83 -9 99 -14 15 -6 33 -7 38 -4 5 3 28 -1 51 -9 23 -8 65 -21 92 -27 103 -27 279 -132 366 -219 82 -83 169 -246 195 -365 20 -93 35 -178 38 -218 2 -25 6 -50 9 -55 23 -36 31 -975 23 -2403 -4 -609 -4 -737 -4 -2295 0 -1467 -3 -1744 -22 -1920 -20 -174 -80 -361 -145 -450 -12 -16 -32 -48 -43 -70 -33 -62 -159 -185 -191 -185 -6 0 -11 -4 -11 -8 0 -8 -87 -47 -106 -47 -6 0 -18 -5 -25 -11 -29 -22 -176 -66 -269 -79 -19 -3 -51 -8 -70 -11 -19 -3 -48 -7 -65 -9 -16 -1 -41 -5 -55 -9 -41 -9 -236 -19 -370 -18 -69 1 -411 1 -760 1 -4569 -4 -5078 -2 -5230 21 -286 44 -512 132 -626 243 -35 34 -69 67 -76 73 -54 45 -176 268 -183 334 -2 19 -15 91 -30 160 l-27 125 0 995 c0 547 0 1020 1 1050 1 30 1 494 0 1030 -2 1453 -2 1556 -5 1795 -6 490 0 1307 10 1395 3 25 8 110 10 190 3 80 10 161 16 180 5 19 12 59 15 88 7 72 80 282 105 302 4 3 18 22 31 42 60 89 245 249 306 264 13 4 23 10 23 15 0 5 8 9 18 9 10 0 22 4 28 9 13 13 162 62 204 67 19 3 49 9 65 14 44 13 109 22 200 27 143 7 171 10 182 16 17 11 1099 25 2283 31 812 3 775 2 794 21 33 33 -16 97 -106 138 -44 21 -146 26 -663 33 -192 2 -354 5 -360 5 -5 0 -94 0 -197 -1 -103 -1 -190 0 -195 2 -4 1 -71 1 -148 -2z m-910 -130 c3 -5 1 -10 -4 -10 -6 0 -11 5 -11 10 0 6 2 10 4 10 3 0 8 -4 11 -10z m5662 -8646 c-3 -3 -12 -4 -19 -1 -8 3 -5 6 6 6 11 1 17 -2 13 -5z" fill="#000000"/>
<path d="M5897 9493 c-15 -15 -5 -30 36 -51 23 -13 49 -24 57 -25 8 -2 21 -6 28 -11 18 -11 215 -63 227 -60 6 1 23 5 39 9 l29 6 -27 28 c-14 15 -26 32 -26 39 0 26 -50 44 -127 46 -43 0 -84 5 -91 10 -7 4 -16 6 -18 3 -3 -3 -18 -2 -33 3 -16 4 -35 3 -46 -2 -13 -8 -16 -7 -11 1 8 12 -26 16 -37 4z" fill="#000000"/>
<path d="M3723 4503 c-11 -15 -41 -68 -67 -118 -26 -49 -52 -94 -57 -99 -5 -6 -9 -18 -9 -27 0 -9 -7 -22 -15 -29 -8 -7 -15 -17 -15 -21 0 -5 16 5 35 22 19 18 32 36 29 40 -3 5 -1 9 5 9 15 0 103 160 97 176 -3 8 -2 13 3 10 8 -5 23 54 16 62 -2 2 -12 -9 -22 -25z" fill="#000000"/>
<path d="M3885 4391 c-16 -25 -40 -68 -52 -96 l-23 -50 35 40 c29 33 82 142 73 150 -2 2 -16 -18 -33 -44z" fill="#000000"/>
<path d="M4346 3992 c-15 -25 109 -232 139 -232 13 0 3 42 -15 60 -11 11 -16 20 -10 20 12 0 -54 105 -86 138 -12 13 -25 19 -28 14z" fill="#000000"/>
<path d="M3210 3357 c-14 -18 -34 -48 -44 -68 l-19 -36 -46 22 c-149 72 -229 95 -348 100 -82 4 -113 1 -190 -20 -131 -35 -303 -128 -403 -219 -40 -37 -135 -150 -168 -201 -20 -32 -115 -228 -118 -245 -2 -8 -10 -44 -19 -80 -29 -114 -45 -321 -30 -400 2 -14 6 -43 9 -65 14 -121 75 -290 139 -387 59 -91 143 -183 207 -229 30 -21 50 -39 45 -39 -6 0 19 -14 55 -32 36 -17 67 -35 70 -38 5 -7 104 -43 130 -47 173 -28 283 -26 410 8 70 19 98 31 198 86 58 32 185 161 210 213 26 55 52 153 52 197 0 21 -8 40 -22 53 l-23 21 -21 -27 c-12 -14 -32 -46 -44 -71 -31 -62 -122 -148 -195 -183 -121 -59 -201 -79 -306 -77 -54 2 -103 7 -110 14 -8 6 -37 18 -66 26 -74 22 -117 51 -206 140 -32 32 -63 71 -69 87 -5 17 -14 30 -19 30 -5 0 -9 8 -9 18 0 10 -6 26 -14 37 -17 25 -44 110 -50 155 -3 19 -9 55 -14 80 -17 82 -14 222 9 351 11 68 23 127 26 131 2 5 6 18 8 30 3 12 18 49 35 84 16 35 30 66 30 69 0 14 80 123 113 152 52 47 168 124 202 135 28 9 71 14 155 19 94 6 233 -54 298 -128 61 -68 62 -70 109 -143 23 -36 48 -74 55 -84 41 -61 77 -71 89 -26 7 27 3 147 -10 270 -5 41 -7 98 -5 125 6 105 4 186 -6 205 -16 29 -51 23 -80 -13z m-1052 -1542 c-3 -3 -9 2 -12 12 -6 14 -5 15 5 6 7 -7 10 -15 7 -18z" fill="#000000"/>
<path d="M4495 2989 c-45 -16 -79 -17 -320 -14 -731 10 -715 11 -715 -23 0 -9 25 -36 56 -60 54 -42 85 -91 88 -139 0 -13 3 -23 6 -23 3 0 4 -170 3 -377 -1 -276 2 -382 10 -392 7 -8 8 -12 2 -9 -6 4 -10 -47 -10 -145 0 -180 -11 -212 -88 -262 -48 -31 -56 -49 -34 -78 11 -16 52 -18 462 -21 443 -3 533 -7 598 -24 74 -19 73 -22 159 350 13 58 6 78 -27 78 -19 0 -32 -11 -53 -41 -94 -144 -170 -174 -427 -174 -208 1 -251 8 -259 41 -7 27 -10 444 -3 450 2 2 67 5 144 5 162 2 186 -6 236 -77 34 -48 46 -53 70 -26 14 15 15 45 11 227 -3 126 -9 214 -16 222 -19 24 -37 14 -65 -37 -39 -71 -94 -90 -260 -95 l-123 -4 0 107 c0 59 -2 153 -4 209 -6 146 -18 139 206 135 288 -6 273 -4 305 -33 15 -14 48 -54 72 -88 41 -57 71 -75 86 -52 3 5 7 85 10 177 7 223 -1 236 -120 193z" fill="#000000"/>
<path d="M7695 2995 c-86 -12 -181 -50 -263 -107 -49 -34 -202 -186 -202 -201 0 -4 -18 -35 -41 -68 -43 -64 -96 -206 -93 -249 1 -14 -4 -49 -12 -78 -30 -118 10 -330 93 -487 32 -61 128 -181 163 -204 14 -8 34 -24 45 -34 27 -25 172 -96 209 -103 16 -2 38 -10 50 -17 13 -7 72 -13 157 -14 143 -1 227 13 328 59 138 61 264 186 335 332 53 107 96 260 91 321 -2 22 -6 73 -9 113 -5 71 -29 197 -46 237 -5 11 -12 31 -15 43 -4 13 -23 51 -43 83 -21 33 -42 68 -47 79 -6 10 -25 35 -43 56 -18 20 -32 41 -32 46 0 4 -4 8 -9 8 -5 0 -23 14 -41 30 -18 17 -36 30 -41 30 -5 0 -29 16 -55 35 -25 19 -52 35 -60 35 -8 0 -14 4 -14 9 0 16 -153 50 -240 53 -47 2 -121 -1 -165 -7z m262 -210 c33 -16 129 -105 150 -140 42 -68 86 -175 101 -245 12 -53 11 -47 17 -180 9 -164 -30 -309 -118 -448 -114 -180 -367 -217 -526 -78 -26 23 -91 121 -91 137 0 6 -5 20 -12 32 -55 98 -82 327 -58 483 15 98 39 168 97 289 22 48 94 121 140 144 80 40 222 43 300 6z" fill="#000000"/>
<path d="M5365 2988 c-46 -9 -247 -11 -350 -3 -77 6 -121 -6 -130 -37 -8 -23 8 -44 49 -63 61 -29 75 -76 75 -245 0 -47 0 -94 2 -105 4 -44 1 -658 -4 -775 -3 -69 -10 -136 -15 -150 -11 -27 -45 -61 -79 -79 -29 -15 -39 -49 -20 -68 11 -11 36 -14 108 -12 52 1 171 2 266 1 151 -1 174 0 193 16 20 16 21 21 11 41 -7 12 -27 29 -44 36 -34 14 -67 46 -85 81 -22 43 -31 247 -27 653 2 227 7 437 10 465 10 69 28 103 87 158 42 39 48 49 39 66 -13 25 -36 30 -86 20z" fill="#000000"/>
<path d="M5684 2979 c-22 -24 -18 -34 40 -91 44 -44 56 -62 66 -108 10 -47 24 -538 20 -755 -2 -176 -8 -323 -13 -345 -17 -67 -61 -126 -116 -154 -34 -18 -39 -36 -16 -60 24 -23 574 -20 592 3 23 29 13 46 -49 86 -104 67 -101 59 -106 325 l-5 230 26 0 c72 0 126 -21 166 -65 23 -25 41 -51 41 -59 0 -8 3 -16 8 -18 7 -3 33 -50 75 -133 37 -75 100 -180 135 -225 47 -60 133 -141 144 -134 4 3 8 0 8 -5 0 -6 3 -10 8 -9 4 1 23 -7 42 -17 29 -16 53 -19 150 -18 123 1 185 17 207 52 11 17 4 23 -70 60 -85 42 -132 79 -181 146 -17 22 -33 42 -37 45 -3 3 -10 16 -14 30 -4 14 -15 34 -25 45 -10 11 -35 54 -56 95 -22 41 -42 77 -46 78 -5 2 -8 9 -8 16 0 8 -13 29 -30 47 -16 19 -30 37 -30 41 0 5 -16 26 -36 48 -20 22 -32 40 -26 40 6 0 17 6 24 13 7 7 30 21 51 30 53 26 151 125 182 187 43 85 52 224 20 320 -29 87 -124 171 -253 224 -113 45 -156 49 -525 50 -305 1 -350 -1 -363 -15z m674 -168 c17 -9 24 -11 42 -11 22 0 82 -66 105 -116 78 -170 14 -322 -169 -402 -16 -7 -75 -15 -132 -17 l-103 -5 -1 128 c-1 70 -3 188 -5 262 -2 74 1 143 6 152 7 12 25 18 67 20 81 5 170 0 190 -11z" fill="#000000"/>
</g>
</svg>